<svg version="1.2" xmlns="http://www.w3.org/2000/svg" viewBox="0 0 1009 1524" width="1009" height="1524">
	<title>Bing_Fluent_Logo-svg</title>
	<defs>
		<radialGradient id="g1" cx="0" cy="0" r="1" gradientUnits="userSpaceOnUse" gradientTransform="matrix(-515.606,-595.043,595.043,-515.606,973.471,1074.913)">
			<stop offset="0" stop-color="#00cacc"/>
			<stop offset="1" stop-color="#048fce"/>
		</radialGradient>
		<radialGradient id="g2" cx="0" cy="0" r="1" gradientUnits="userSpaceOnUse" gradientTransform="matrix(782.797,-335.433,335.433,782.797,132.179,1361.978)">
			<stop offset="0" stop-color="#00bbec"/>
			<stop offset="1" stop-color="#2756a9"/>
		</radialGradient>
		<linearGradient id="g3" x2="1" gradientUnits="userSpaceOnUse" gradientTransform="matrix(0,1316.234,-352.431,0,176.216,0)">
			<stop offset="0" stop-color="#00bbec"/>
			<stop offset="1" stop-color="#2756a9"/>
		</linearGradient>
	</defs>
	<style>
		.s0 { fill: url(#g1) } 
		.s1 { fill: url(#g2) } 
		.s2 { fill: url(#g3) } 
	</style>
	<path id="Layer" fill-rule="evenodd" class="s0" d="m509.6 480.6c-28.1 3.3-49.5 26.1-51.5 54.8-0.8 12.4-0.6 13.3 27.5 85.6 64 164.5 79.4 204.1 82 209.6 6.4 13.5 15.2 26.2 26.3 37.6 8.5 8.8 14.1 13.5 23.6 19.8 16.7 11.2 25 14.2 89.9 33.4 63.2 18.8 97.7 31.2 127.5 46 38.5 19.1 65.4 40.9 82.4 66.7 12.2 18.5 23.1 51.8 27.8 85.2 1.8 13.1 1.8 42 0 53.8-4 25.7-11.9 47.2-24 65.2-6.5 9.5-4.2 7.9 5.1-3.7 26.6-33 53.6-89.4 67.4-140.5 16.7-61.9 19-128.4 6.5-191.3-24.2-122.5-101.5-228.2-210.4-287.7-6.9-3.7-32.9-17.4-68.3-35.8-5.3-2.8-12.6-6.6-16.2-8.5-3.6-1.8-10.9-5.7-16.3-8.4-5.3-2.8-20.8-10.9-34.3-17.9-13.5-7.1-28.6-14.9-33.5-17.5-15.2-7.9-25.3-13.2-32.9-17.2-35-18.3-49.8-25.7-54.1-27-4.4-1.4-15.6-3.1-18.5-2.9-0.6 0.1-3.3 0.4-6 0.7z"/>
	<path id="Layer" class="s1" d="m586 1094.7c-2 1.1-4.7 2.8-6.1 3.7-1.4 0.9-4.5 2.8-6.9 4.3-8.7 5.3-32 19.7-51.9 32-13.2 8.1-15.1 9.3-31.8 19.7-6 3.7-12.3 7.6-14.1 8.6-1.8 1.1-9.4 5.8-17 10.5-7.5 4.7-20.7 12.8-29.2 18-8.6 5.3-23.8 14.7-34 21-10.1 6.2-23.4 14.5-29.6 18.2-6.1 3.8-11.8 7.5-12.6 8.1-1.2 1-55.9 35-83.4 51.7-20.9 12.7-45 21.2-69.7 24.6-11.5 1.5-33.3 1.5-44.8 0-31.1-4.2-59.7-15.8-84.3-34.2-9.6-7.1-27.7-25.3-34.7-34.6-16.3-22.1-26.8-45.7-32.3-72.4-1.3-6.2-2.5-11.4-2.7-11.6-0.5-0.5 0.5 8.8 2.1 20.9 1.8 12.7 5.4 31 9.4 46.6 30.8 121.1 118.3 219.6 236.9 266.4 34.1 13.5 68.5 22 106 26.1 14.1 1.6 54 2.3 68.7 1.1 67.4-5.1 126-24.9 186.2-63 5.4-3.3 15.5-9.7 22.4-14.1 7-4.4 15.7-9.9 19.5-12.3 3.8-2.5 8.3-5.3 10.1-6.4 1.8-1.1 5.4-3.3 8-5 2.6-1.7 13.6-8.6 24.5-15.5l43.7-27.6 15-9.5 0.5-0.3 1.7-1.1 0.8-0.5 11-6.9 38.2-24.1c48.6-30.6 63.1-41.3 85.7-63.4 9.4-9.3 23.6-25 24.3-27 0.1-0.4 2.7-4.3 5.6-8.7 12-17.7 19.9-39.3 23.9-64.9 1.8-11.8 1.8-40.7 0-53.8-3.6-25.3-11.7-53.9-20.4-72.2-14.3-29.9-44.7-57.1-88.4-79-12.1-6.1-24.5-11.6-25.9-11.6-0.7 0.1-41.3 24.9-90.4 55.3-49.1 30.3-91.6 56.7-94.6 58.5-3 1.9-8.1 5-11.4 7z"/>
	<path id="Layer" class="s2" d="m0.2 949.1l0.2 211.4 2.8 12.3c8.5 38.4 23.3 66 49.1 91.7 12.1 12.1 21.4 19.4 34.5 27.2 27.8 16.4 57.7 24.5 90.5 24.5 34.3 0 64-8.5 94.6-27.2 5.2-3.2 25.4-15.7 45-27.7l35.5-22v-250.8-250.8-229.5c0-146.4-0.3-233.4-0.7-240.2-2.9-42.8-20.9-82.2-51-112.1-9.3-9.1-17.2-15.2-40.7-31.4-11.7-8.1-33.2-22.9-47.7-32.8-14.5-10-38.3-26.5-53-36.6-14.7-10.1-35.7-24.6-46.6-32.1-22.8-15.7-24.6-16.8-31.4-19.3-9-3.2-18.5-4.3-27.5-3.4-26.2 2.9-47.3 21.8-52.7 47.6-0.9 4-1 57.4-1.1 347.3v342.5z"/>
</svg>